I Come with the Rain

.: Scheda del Film :.

Titolo originale: I Come with the Rain
Paese: Giappone
Anno di produzione: 2008
Genere: Thriller Noir
Regia: Tran Anh Hung
Durata: 114'
Tipologia: lungometraggio
Lingua originale: Inglese
Produzione: Central Films - Lumière International
Distribuzione: Avex Marketing Communications - GAGA
Data di uscita: 6 Giugno 2009 (Giappone)

.: Cast :.

Josh Hartnett è Kline
Elias Koteas è Hasford
Lee Byung-hun è Su Dongpo
Takuya Kimura è Shitao
Shawn Yue è Meng Zi
Tr?n N? Yên Khê è Lili

.: Trama:.

Due anni dopo aver ucciso Hasford, un serial killer, nella linea del dovere, Kline adesso lavora come detective privato, ma ancora inseguito dai fantasmi del passato. Un potente boss dei conglomerati farmaceutici ingaggia Kline per trovare suo figlio unico, Shitao, che è scomparso misteriosamente nelle Filippine dove aiutava in un orfanotrofio.

Kline segue le tracce lasciate dall'etereo Shitao alle giungle di Mindanao, e poi alla giungla urbana di Hong Kong dove richiede l'aiuto di Meng Zi, un vecchio amico poliziotto. La ricerca porta Kline ad imbattersi con il boss del crimine organizzato locale, Sung Dongpo, che sta causando problemi all'underworld (mondo criminale), trasportato da una folle passione per la sua fidanzata drogata, Lili.

Preso in mezzo al fuoco incrociato tra la polizia di Hong Kong e circolo mafioso di Sung Dongpo che cerca anche lui Shitao, Kline si ritrova da solo, in questa città sconosciuta, quando Meng Zi è vittima di una tentato assassinamento e ricoverato.

Lasciando indietro il suo hotel 5 stelle per un scialbo appartamento da scena del crimine per poter entrare nella mente di Shitao, Kline gradualmente perde se stesse nelle terribili memorie di Hasford, cui specialità era asportare gli arti delle sue vittime mentre queste erano ancora in vita, per poi riassemblarle in installazioni scultoree.

Dopo alcune settimane immerso nelle sue perseguitate memorie, diviso tra il bene e il male, Kline sta per lasciare Hong Kong quando incontra Shitao, che è diventato un misterioso vagabondo con poteri curativi.

Liberamente tradotto da Wikipedia!


.: Scheda tecnica del filmato :.

General

Format : AVI
Format/Info : Audio Video Interleave
File size : 1.45 GiB
Duration : 1h 54mn
Overall bit rate : 1 818 Kbps
Writing application : VirtualDubMod 1.5.10.2 (build 2542/release)
Writing library : VirtualDubMod build 2542/release

Video

ID : 0
Format : MPEG-4 Visual
Format profile : Advanced Simple@L5
Format settings, BVOP : 1
Format settings, QPel : No
Format settings, GMC : No warppoints
Format settings, Matrix : Custom
Muxing mode : Packed bitstream
Codec ID : XVID
Codec ID/Hint : XviD
Duration : 1h 54mn
Bit rate : 1 361 Kbps
Width : 720 pixels
Height : 304 pixels
Display aspect ratio : 2.35:1
Frame rate : 23.976 fps
Color space : YUV
Chroma subsampling : 4:2:0
Bit depth : 8 bits
Scan type : Progressive
Compression mode : Lossy
Bits/(Pixel*Frame) : 0.259
Stream size : 1.09 GiB (75%)
Writing library : XviD 1.2.1 (UTC 2008-12-04)

Audio

ID : 1
Format : AC-3
Format/Info : Audio Coding 3
Mode extension : CM (complete main)
Codec ID : 2000
Duration : 1h 54mn
Bit rate mode : Constant
Bit rate : 448 Kbps
Channel(s) : 6 channels
Channel positions : Front: L C R, Side: L R, LFE
Sampling rate : 48.0 KHz
Bit depth : 16 bits
Compression mode : Lossy
Stream size : 367 MiB (25%)
Alignment : Split accross interleaves
Interleave, duration : 42 ms (1.00 video frame)
Interleave, preload duration : 500 ms 